<?xml version="1.0" encoding="iso-8859-1"?>
<!-- Uploaded to: SVG Repo, www.svgrepo.com, Generator: SVG Repo Mixer Tools -->
<svg version="1.1" id="Layer_1" xmlns="http://www.w3.org/2000/svg" xmlns:xlink="http://www.w3.org/1999/xlink" 
	 viewBox="0 0 511.98 511.98" xml:space="preserve">
<path style="fill:#FC6E51;" d="M479.981,245.318h-21.343c-5.875,0-10.656-15.452-10.656-21.327v-85.325
	c0-17.655-14.359-31.999-31.999-31.999H31.999C14.343,106.667,0,121.011,0,138.667v181.338c0,17.624,14.343,31.998,31.999,31.998
	h447.982c17.64,0,31.999-14.374,31.999-31.998v-42.687C511.98,259.677,497.621,245.318,479.981,245.318z"/>
<path style="fill:#E6E9ED;" d="M114.605,331.504l-18.609-22.187H0v10.688c0,17.624,14.343,31.998,31.999,31.998h76.372
	C112.011,340.004,114.605,331.504,114.605,331.504z"/>
<g>
	<path style="fill:#434A54;" d="M95.996,298.66c-29.42,0-53.341,23.938-53.341,53.342c0,29.405,23.921,53.31,53.341,53.31
		c29.405,0,53.326-23.904,53.326-53.31C149.322,322.598,125.401,298.66,95.996,298.66z"/>
	<path style="fill:#434A54;" d="M394.64,298.66c-29.405,0-53.325,23.938-53.325,53.342c0,29.405,23.92,53.31,53.325,53.31
		s53.342-23.904,53.342-53.31C447.982,322.598,424.046,298.66,394.64,298.66z"/>
</g>
<g>
	<path style="fill:#F5F7FA;" d="M103.527,344.44c4.171,4.187,4.171,10.937,0,15.093c-4.156,4.156-10.922,4.156-15.078,0
		c-4.171-4.156-4.171-10.906,0-15.093C92.605,340.285,99.371,340.285,103.527,344.44z"/>
	<path style="fill:#F5F7FA;" d="M402.187,344.44c4.172,4.187,4.172,10.937,0,15.093s-10.922,4.156-15.078,0
		c-4.172-4.156-4.172-10.906,0-15.093C391.265,340.285,398.015,340.285,402.187,344.44z"/>
</g>
<polygon style="fill:#4FC2E9;" points="447.982,159.995 394.64,159.995 373.313,159.995 53.326,159.995 53.326,245.318 
	373.313,245.318 394.64,245.318 479.981,245.318 "/>
<path style="fill:#E6E9ED;" d="M479.981,277.318c-5.906,0-10.672,4.781-10.672,10.688c0,5.874,4.766,10.655,10.672,10.655h31.999
	v-21.343H479.981z"/>
<g>
	<rect x="80" y="159.99" style="fill:#CCD1D9;" width="10.655" height="85.32"/>
	<rect x="111.99" y="159.99" style="fill:#CCD1D9;" width="10.656" height="85.32"/>
	<rect x="143.99" y="159.99" style="fill:#CCD1D9;" width="10.656" height="85.32"/>
	<rect x="175.99" y="159.99" style="fill:#CCD1D9;" width="10.656" height="85.32"/>
	<rect x="207.99" y="159.99" style="fill:#CCD1D9;" width="10.656" height="85.32"/>
	<rect x="239.99" y="159.99" style="fill:#CCD1D9;" width="10.656" height="85.32"/>
	<rect x="271.99" y="159.99" style="fill:#CCD1D9;" width="10.656" height="85.32"/>
	<rect x="303.99" y="159.99" style="fill:#CCD1D9;" width="10.655" height="85.32"/>
	<rect x="335.99" y="159.99" style="fill:#CCD1D9;" width="10.656" height="85.32"/>
	<rect x="367.99" y="159.99" style="fill:#CCD1D9;" width="10.655" height="85.32"/>
</g>
<rect x="53.33" y="197.32" style="fill:#E6E9ED;" width="325.31" height="10.672"/>
<g>
	<path style="fill:#FFCE54;" d="M314.643,341.315h-10.655V165.322H186.649v175.994h-10.656V159.995c0-2.938,2.375-5.328,5.328-5.328
		h127.995c2.938,0,5.327,2.391,5.327,5.328L314.643,341.315L314.643,341.315z"/>
	<rect x="239.99" y="159.99" style="fill:#FFCE54;" width="10.656" height="181.32"/>
	<rect x="175.99" y="245.32" style="fill:#FFCE54;" width="138.65" height="106.68"/>
</g>
</svg>